<svg width="93" height="59" viewBox="0 0 93 59" fill="none" xmlns="http://www.w3.org/2000/svg">
<path d="M45.958 30.4925C45.9585 23.4366 51.778 17.7171 58.9552 17.7175C66.1343 17.7175 71.9529 23.4379 71.9524 30.4938C71.952 37.5501 66.1329 43.2688 58.9552 43.2688C51.7771 43.2696 45.9585 37.5501 45.958 30.4947C45.958 30.4938 45.958 30.4934 45.958 30.4925Z" fill="#F2F2F1"/>
<path d="M58.9553 16C57.8497 15.9996 56.7477 16.1208 55.6696 16.3615L56.1115 18.2624C62.9833 16.7217 69.8244 20.9489 71.3909 27.7033C72.9582 34.458 68.6573 41.1822 61.786 42.7229C59.9186 43.1412 57.9793 43.1412 56.111 42.7229L55.6687 44.6242C56.7477 44.8653 57.851 44.9866 58.958 44.9857C67.1003 44.9857 73.7019 38.497 73.7019 30.492C73.7024 22.4874 67.0972 16 58.9553 16Z" fill="#E7434F"/>
<path d="M46.1949 30.4925C46.1958 24.6419 50.3092 19.5682 56.1115 18.2624L55.6696 16.3616C49.1082 17.8285 44.2104 23.5978 44.2104 30.4925C44.2104 37.3867 49.106 43.1542 55.666 44.6247L56.1084 42.7233C50.3078 41.4154 46.1949 36.3425 46.1949 30.4925Z" fill="#0069B1"/>
<path d="M56.8362 25.6848C57.5442 25.9095 58.1568 26.3581 58.5788 26.9604C58.9295 27.448 59.1775 28.0001 59.3072 28.5841C59.4332 29.1304 59.4992 29.6886 59.5037 30.2487C59.5037 31.5855 59.2304 32.7176 58.6841 33.6458C57.9427 34.8952 56.7991 35.5201 55.2525 35.521H50.8386V25.4663H55.2489C55.8828 25.4752 56.4101 25.5494 56.8312 25.6884L56.8362 25.6848ZM52.9139 27.2157V33.7778H54.8879C55.8982 33.7778 56.6017 33.2879 56.997 32.3108C57.2152 31.7752 57.3246 31.1352 57.3241 30.3939C57.3241 29.3715 57.161 28.5859 56.8353 28.0374C56.5081 27.4889 55.8584 27.2148 54.8852 27.2153H52.9139V27.2157Z" fill="#878586"/>
<path d="M67.0695 25.4663V27.2459H64.0089V35.5205H61.8582V27.2459H58.7844V25.4663H67.0695Z" fill="#878586"/>
<path d="M28.2736 34.8398L26.2965 27.1163V35.4842C26.2965 35.9478 26.1913 36.2947 25.981 36.5259C25.7684 36.7584 25.4615 36.8844 25.1441 36.8729C24.8312 36.8819 24.5295 36.7571 24.3195 36.5289C24.1065 36.3007 24 35.9516 24 35.4824V25.8938C24 25.3644 24.1404 25.008 24.4208 24.8251C24.7016 24.6418 25.0802 24.5495 25.5567 24.5478H26.33C26.7956 24.5478 27.1338 24.5892 27.3446 24.6721C27.5542 24.7542 27.7219 24.9148 27.8115 25.1187C27.9549 25.4592 28.0701 25.8105 28.1562 26.169L29.9494 32.805L31.7408 26.1664C31.8269 25.8083 31.9412 25.4579 32.0838 25.1178C32.1729 24.914 32.3411 24.7533 32.5507 24.6717C32.7606 24.5888 33.0988 24.5474 33.5653 24.5474H34.3395C34.8155 24.5474 35.1937 24.6397 35.474 24.8243C35.7549 25.0093 35.8953 25.3652 35.8953 25.8929V35.4842C35.8953 35.9478 35.7901 36.2947 35.5792 36.5259C35.3688 36.7575 35.0867 36.8729 34.7329 36.8729C34.4221 36.8806 34.1234 36.7537 33.9169 36.5246C33.7039 36.2935 33.597 35.9461 33.597 35.4829V27.1163L31.6199 34.8394C31.4921 35.3397 31.3874 35.7089 31.3057 35.9461C31.2148 36.1939 31.06 36.4161 30.8562 36.5879C30.6388 36.7776 30.3363 36.8729 29.9498 36.8729C29.4516 36.893 28.9843 36.6366 28.7387 36.2101C28.6227 36.0089 28.534 35.7927 28.4736 35.5692C28.4066 35.3367 28.3401 35.0923 28.2736 34.8398Z" fill="#878586"/>
<path d="M39.4602 26.6464C39.1598 26.6524 38.8673 26.5498 38.6399 26.3567C38.4134 26.1644 38.3 25.8909 38.2995 25.5384C38.2904 25.2376 38.4173 24.9487 38.646 24.7483C38.866 24.5466 39.1568 24.4355 39.4576 24.4385C39.7467 24.4364 40.0275 24.5355 40.2483 24.7193C40.4778 24.909 40.5926 25.182 40.5926 25.5384C40.5926 25.8858 40.4804 26.1567 40.2561 26.3528C40.0379 26.546 39.7541 26.6507 39.4602 26.6464ZM40.5956 28.9778V35.5009C40.5956 35.9535 40.4865 36.2944 40.2683 36.5265C40.0549 36.7555 39.7506 36.8816 39.4354 36.8734C39.1211 36.882 38.8194 36.7517 38.6151 36.5166C38.4052 36.2795 38.3 35.9398 38.3 35.4992V29.0431C38.3 28.5975 38.4052 28.2612 38.6151 28.036C38.8247 27.8095 39.1246 27.6852 39.4354 27.6967C39.7501 27.6882 40.0527 27.8138 40.2683 28.0394C40.4865 28.262 40.5961 28.5757 40.5956 28.9778Z" fill="#878586"/>
</svg>
